# This file uses centimeters as units for non-parametric coordinates.

g default
v -1.000000 -0.500000 1.000000
v -0.500000 -0.500000 1.675435
v 0.000000 -0.500000 1.000000
v 0.500000 -0.500000 1.685117
v 1.000000 -0.500000 1.000000
v -1.000000 -0.250000 1.000000
v -0.500000 -0.250000 1.675435
v 0.000000 -0.250000 1.000000
v 0.500000 -0.250000 1.685117
v 1.000000 -0.250000 1.000000
v -1.000000 0.000000 1.000000
v -0.500000 0.000000 1.675435
v 0.000000 0.000000 1.000000
v 0.500000 0.000000 1.685117
v 1.000000 0.000000 1.000000
v -1.000000 0.250000 1.000000
v -0.500000 0.250000 1.675435
v 0.000000 0.250000 1.000000
v 0.500000 0.250000 1.685117
v 1.000000 0.250000 1.000000
v -1.000000 0.500000 0.930350
v -0.500000 0.500000 1.561586
v 0.000000 0.500000 0.930350
v 0.500000 0.500000 1.576680
v 1.000000 0.500000 0.930350
v -1.000000 0.500000 0.569650
v -0.500000 0.500000 0.971983
v 0.000000 0.500000 0.569650
v 0.500000 0.500000 1.015109
v 1.000000 0.500000 0.569650
v -1.377333 0.500000 0.000000
v -0.688666 0.500000 0.040832
v 0.000000 0.500000 0.000000
v 0.688666 0.500000 0.128227
v 1.377333 0.500000 0.000000
v -1.000000 0.500000 -0.500000
v -0.500000 0.500000 -0.776469
v 0.000000 0.500000 -0.500000
v 0.500000 0.500000 -0.650218
v 1.000000 0.500000 -0.500000
v 0.000000 0.500000 -2.360552
v 0.000000 0.250000 -1.700212
v 0.000000 0.000000 -1.702510
v 0.000000 -0.250000 -1.697613
v 0.000000 -0.500000 -2.360552
v -1.000000 -0.500000 -0.500000
v -0.500000 -0.500000 -0.776469
v 0.000000 -0.500000 -0.500000
v 0.500000 -0.500000 -0.650218
v 1.000000 -0.500000 -0.500000
v -1.377333 -0.500000 0.000000
v -0.688666 -0.500000 0.040832
v 0.000000 -0.500000 0.000000
v 0.688666 -0.500000 0.128227
v 1.377333 -0.500000 0.000000
v -1.000000 -0.500000 0.500000
v -0.500000 -0.500000 0.858134
v 0.000000 -0.500000 0.500000
v 0.500000 -0.500000 0.906672
v 1.000000 -0.500000 0.500000
v 1.000000 -0.250000 -0.500000
v 1.377333 -0.250000 0.000000
v 1.000000 -0.250000 0.500000
v 1.000000 0.000000 -0.500000
v 1.377333 0.000000 0.000000
v 1.000000 0.000000 0.500000
v 1.000000 0.250000 -0.500000
v 1.377333 0.250000 0.000000
v 1.000000 0.250000 0.500000
v -1.000000 -0.250000 -0.500000
v -1.377333 -0.250000 0.000000
v -1.000000 -0.250000 0.500000
v -1.000000 0.000000 -0.500000
v -1.377333 0.000000 0.000000
v -1.000000 0.000000 0.500000
v -1.000000 0.250000 -0.500000
v -1.377333 0.250000 0.000000
v -1.000000 0.250000 0.500000
vt 0.375000 0.000000
vt 0.437500 0.000000
vt 0.500000 0.000000
vt 0.562500 0.000000
vt 0.625000 0.000000
vt 0.375000 0.062500
vt 0.437500 0.062500
vt 0.500000 0.062500
vt 0.562500 0.062500
vt 0.625000 0.062500
vt 0.375000 0.125000
vt 0.437500 0.125000
vt 0.500000 0.125000
vt 0.562500 0.125000
vt 0.625000 0.125000
vt 0.375000 0.187500
vt 0.437500 0.187500
vt 0.500000 0.187500
vt 0.562500 0.187500
vt 0.625000 0.187500
vt 0.375000 0.250000
vt 0.437500 0.250000
vt 0.500000 0.250000
vt 0.562500 0.250000
vt 0.625000 0.250000
vt 0.375000 0.312500
vt 0.437500 0.312500
vt 0.500000 0.312500
vt 0.562500 0.312500
vt 0.625000 0.312500
vt 0.375000 0.375000
vt 0.437500 0.375000
vt 0.500000 0.375000
vt 0.562500 0.375000
vt 0.625000 0.375000
vt 0.375000 0.437500
vt 0.437500 0.437500
vt 0.500000 0.437500
vt 0.562500 0.437500
vt 0.625000 0.437500
vt 0.500000 0.500000
vt 0.500000 0.750000
vt 0.375000 0.812500
vt 0.437500 0.812500
vt 0.500000 0.812500
vt 0.562500 0.812500
vt 0.625000 0.812500
vt 0.375000 0.875000
vt 0.437500 0.875000
vt 0.500000 0.875000
vt 0.562500 0.875000
vt 0.625000 0.875000
vt 0.375000 0.937500
vt 0.437500 0.937500
vt 0.500000 0.937500
vt 0.562500 0.937500
vt 0.625000 0.937500
vt 0.375000 1.000000
vt 0.437500 1.000000
vt 0.500000 1.000000
vt 0.562500 1.000000
vt 0.625000 1.000000
vt 0.875000 0.000000
vt 0.812500 0.000000
vt 0.750000 0.000000
vt 0.687500 0.000000
vt 0.875000 0.062500
vt 0.812500 0.062500
vt 0.750000 0.062500
vt 0.687500 0.062500
vt 0.875000 0.125000
vt 0.812500 0.125000
vt 0.750000 0.125000
vt 0.687500 0.125000
vt 0.875000 0.187500
vt 0.812500 0.187500
vt 0.750000 0.187500
vt 0.687500 0.187500
vt 0.875000 0.250000
vt 0.812500 0.250000
vt 0.750000 0.250000
vt 0.687500 0.250000
vt 0.125000 0.000000
vt 0.187500 0.000000
vt 0.250000 0.000000
vt 0.312500 0.000000
vt 0.125000 0.062500
vt 0.187500 0.062500
vt 0.250000 0.062500
vt 0.312500 0.062500
vt 0.125000 0.125000
vt 0.187500 0.125000
vt 0.250000 0.125000
vt 0.312500 0.125000
vt 0.125000 0.187500
vt 0.187500 0.187500
vt 0.250000 0.187500
vt 0.312500 0.187500
vt 0.125000 0.250000
vt 0.187500 0.250000
vt 0.250000 0.250000
vt 0.312500 0.250000
vn -0.803741 0.000000 0.594980
vn 0.000000 0.000000 1.000000
vn 0.000000 0.000000 1.000000
vn -0.803741 0.000000 0.594980
vn -0.009681 0.000000 0.999953
vn -0.009681 0.000000 0.999953
vn 0.000000 0.000000 1.000000
vn 0.000000 0.000000 1.000000
vn 0.807763 0.000000 0.589508
vn 0.807763 0.000000 0.589508
vn 0.000000 0.000000 1.000000
vn -0.803741 0.000000 0.594980
vn -0.009681 0.000000 0.999953
vn 0.000000 0.000000 1.000000
vn 0.807763 0.000000 0.589508
vn 0.000000 0.169879 0.985465
vn -0.793692 0.113415 0.597653
vn -0.011003 0.183786 0.982905
vn 0.000000 0.165455 0.986217
vn 0.798808 0.108978 0.591633
vn 0.000000 0.344528 0.938776
vn -0.775083 0.217693 0.593174
vn -0.011233 0.340018 0.940352
vn 0.000000 0.335525 0.942031
vn 0.781905 0.209165 0.587260
vn 0.000000 1.000000 0.000000
vn 0.000000 1.000000 0.000000
vn 0.000000 1.000000 0.000000
vn 0.000000 1.000000 0.000000
vn 0.000000 1.000000 0.000000
vn 0.000000 1.000000 0.000000
vn 0.000000 1.000000 0.000000
vn 0.000000 1.000000 0.000000
vn 0.000000 1.000000 0.000000
vn 0.000000 1.000000 0.000000
vn 0.000000 1.000000 0.000000
vn 0.000000 1.000000 0.000000
vn 0.000000 1.000000 0.000000
vn 0.000000 1.000000 0.000000
vn 0.000000 1.000000 0.000000
vn 0.000000 1.000000 0.000000
vn 0.000000 1.000000 0.000000
vn 0.000000 1.000000 0.000000
vn 0.000000 1.000000 0.000000
vn 0.000000 1.000000 0.000000
vn 0.000000 1.000000 0.000000
vn 0.000000 -1.000000 0.000000
vn 0.000000 -1.000000 0.000000
vn 0.000000 -1.000000 0.000000
vn 0.000000 -1.000000 0.000000
vn 0.000000 -1.000000 0.000000
vn 0.000000 -1.000000 0.000000
vn 0.000000 -1.000000 0.000000
vn 0.000000 -1.000000 0.000000
vn 0.000000 -1.000000 0.000000
vn 0.000000 -1.000000 0.000000
vn 0.000000 -1.000000 0.000000
vn 0.000000 -1.000000 0.000000
vn 0.000000 -1.000000 0.000000
vn 0.000000 -1.000000 0.000000
vn 0.000000 -1.000000 0.000000
vn 0.000000 -1.000000 0.000000
vn 0.000000 -1.000000 0.000000
vn 0.000000 -1.000000 0.000000
vn 0.000000 -1.000000 0.000000
vn 0.000000 -1.000000 0.000000
vn 0.000000 -1.000000 0.000000
vn 0.727827 0.475590 -0.494046
vn 0.677352 0.587337 -0.442979
vn 0.740619 0.410734 -0.531772
vn 0.773775 0.273080 -0.571577
vn 1.000000 0.000000 0.000000
vn 1.000000 0.000000 0.000000
vn 0.935610 0.000000 0.353036
vn 0.935610 0.000000 0.353036
vn 1.000000 0.000000 0.000000
vn 1.000000 0.000000 0.000000
vn 0.768407 -0.001658 -0.639959
vn 0.777118 -0.001188 -0.629354
vn 1.000000 0.000000 0.000000
vn 0.935610 0.000000 0.353036
vn 1.000000 0.000000 0.000000
vn 0.740998 -0.410433 -0.531476
vn 0.773991 -0.272966 -0.571338
vn 0.999667 -0.025823 0.000000
vn 0.928922 -0.026596 0.369319
vn 1.000000 0.000000 0.000000
vn 0.678579 -0.585596 -0.443405
vn 0.728691 -0.473984 -0.494316
vn 0.998712 -0.050728 0.000000
vn 0.939000 -0.047449 0.340628
vn 1.000000 0.000000 0.000000
vn -0.677352 0.587337 -0.442979
vn -0.727827 0.475590 -0.494046
vn -0.773775 0.273080 -0.571577
vn -0.740619 0.410734 -0.531772
vn -1.000000 0.000000 0.000000
vn -1.000000 0.000000 0.000000
vn -0.935610 0.000000 0.353036
vn -0.935610 0.000000 0.353036
vn -1.000000 0.000000 0.000000
vn -1.000000 0.000000 0.000000
vn -0.777118 -0.001188 -0.629354
vn -0.768407 -0.001658 -0.639959
vn -1.000000 0.000000 0.000000
vn -0.935610 0.000000 0.353036
vn -1.000000 0.000000 0.000000
vn -0.773991 -0.272966 -0.571338
vn -0.740998 -0.410433 -0.531476
vn -0.999667 -0.025823 0.000000
vn -0.928922 -0.026596 0.369319
vn -1.000000 0.000000 0.000000
vn -0.728691 -0.473984 -0.494316
vn -0.678579 -0.585596 -0.443405
vn -0.998712 -0.050728 0.000000
vn -0.939000 -0.047449 0.340628
vn -1.000000 0.000000 0.000000
s 1
g pCube1
f 1/1/1 2/2/2 7/7/3 6/6/4
f 2/2/2 3/3/5 8/8/6 7/7/3
f 3/3/5 4/4/7 9/9/8 8/8/6
f 4/4/7 5/5/9 10/10/10 9/9/8
f 6/6/4 7/7/3 12/12/11 11/11/12
f 7/7/3 8/8/6 13/13/13 12/12/11
f 8/8/6 9/9/8 14/14/14 13/13/13
f 9/9/8 10/10/10 15/15/15 14/14/14
f 11/11/12 12/12/11 17/17/16 16/16/17
f 12/12/11 13/13/13 18/18/18 17/17/16
f 13/13/13 14/14/14 19/19/19 18/18/18
f 14/14/14 15/15/15 20/20/20 19/19/19
f 16/16/17 17/17/16 22/22/21 21/21/22
f 17/17/16 18/18/18 23/23/23 22/22/21
f 18/18/18 19/19/19 24/24/24 23/23/23
f 19/19/19 20/20/20 25/25/25 24/24/24
s 2
f 21/21/26 22/22/27 27/27/28 26/26/29
f 22/22/27 23/23/30 28/28/31 27/27/28
f 23/23/30 24/24/32 29/29/33 28/28/31
f 24/24/32 25/25/34 30/30/35 29/29/33
f 26/26/29 27/27/28 32/32/36 31/31/37
f 27/27/28 28/28/31 33/33/38 32/32/36
f 28/28/31 29/29/33 34/34/39 33/33/38
f 29/29/33 30/30/35 35/35/40 34/34/39
f 31/31/37 32/32/36 37/37/41 36/36/42
f 32/32/36 33/33/38 38/38/43 37/37/41
f 33/33/38 34/34/39 39/39/44 38/38/43
f 34/34/39 35/35/40 40/40/45 39/39/44
f 36/36/42 37/37/41 41/41/46
f 37/37/41 38/38/43 41/41/46
f 38/38/43 39/39/44 41/41/46
f 39/39/44 40/40/45 41/41/46
s 3
f 45/42/47 47/44/48 46/43/49
f 45/42/47 48/45/50 47/44/48
f 45/42/47 49/46/51 48/45/50
f 45/42/47 50/47/52 49/46/51
f 46/43/49 47/44/48 52/49/53 51/48/54
f 47/44/48 48/45/50 53/50/55 52/49/53
f 48/45/50 49/46/51 54/51/56 53/50/55
f 49/46/51 50/47/52 55/52/57 54/51/56
f 51/48/54 52/49/53 57/54/58 56/53/59
f 52/49/53 53/50/55 58/55/60 57/54/58
f 53/50/55 54/51/56 59/56/61 58/55/60
f 54/51/56 55/52/57 60/57/62 59/56/61
f 56/53/59 57/54/58 2/59/63 1/58/64
f 57/54/58 58/55/60 3/60/65 2/59/63
f 58/55/60 59/56/61 4/61/66 3/60/65
f 59/56/61 60/57/62 5/62/67 4/61/66
s 4
f 50/64/68 45/63/69 44/67/70 61/68/71
f 55/65/72 50/64/68 61/68/71 62/69/73
f 60/66/74 55/65/72 62/69/73 63/70/75
f 5/5/76 60/66/74 63/70/75 10/10/77
f 61/68/71 44/67/70 43/71/78 64/72/79
f 62/69/73 61/68/71 64/72/79 65/73/80
f 63/70/75 62/69/73 65/73/80 66/74/81
f 10/10/77 63/70/75 66/74/81 15/15/82
f 64/72/79 43/71/78 42/75/83 67/76/84
f 65/73/80 64/72/79 67/76/84 68/77/85
f 66/74/81 65/73/80 68/77/85 69/78/86
f 15/15/82 66/74/81 69/78/86 20/20/87
f 67/76/84 42/75/83 41/79/88 40/80/89
f 68/77/85 67/76/84 40/80/89 35/81/90
f 69/78/86 68/77/85 35/81/90 30/82/91
f 20/20/87 69/78/86 30/82/91 25/25/92
s 5
f 45/83/93 46/84/94 70/88/95 44/87/96
f 46/84/94 51/85/97 71/89/98 70/88/95
f 51/85/97 56/86/99 72/90/100 71/89/98
f 56/86/99 1/1/101 6/6/102 72/90/100
f 44/87/96 70/88/95 73/92/103 43/91/104
f 70/88/95 71/89/98 74/93/105 73/92/103
f 71/89/98 72/90/100 75/94/106 74/93/105
f 72/90/100 6/6/102 11/11/107 75/94/106
f 43/91/104 73/92/103 76/96/108 42/95/109
f 73/92/103 74/93/105 77/97/110 76/96/108
f 74/93/105 75/94/106 78/98/111 77/97/110
f 75/94/106 11/11/107 16/16/112 78/98/111
f 42/95/109 76/96/108 36/100/113 41/99/114
f 76/96/108 77/97/110 31/101/115 36/100/113
f 77/97/110 78/98/111 26/102/116 31/101/115
f 78/98/111 16/16/112 21/21/117 26/102/116
